# xmcd
#
# Track frame offsets:
#	150
#	10587
#	25985
#	36977
#	63260
#	96172
#	109222
#	123225
#	133775
#	147695
#	157612
#	175862
#	189842
#	203445
#	223675
#	241520
#	256242
#	269477
#	291747
#	307520
#
# Disc length: 4261 seconds
#
# Revision: 2
# Processed by: cddbd v1.5.2PL0 Copyright (c) Steve Scherf et al.
# Submitted via: audiograbber 1.83.01
#
DISCID=1310a314
DTITLE=Louis Armstrong - The very Best of Louis Armstrong [CD 1)
DYEAR=1998
DGENRE=Jazz
TTITLE0=What a wonderful World
TTITLE1=La vie en Rose
TTITLE2=Hello, Dolly
TTITLE3=On the sunny Side of the Street
TTITLE4=Basin Street Blues
TTITLE5=Blueberry Hill 
TTITLE6=C 'est si bon
TTITLE7=The dummy Song 
TTITLE8=Chloé
TTITLE9=I still get Jealous
TTITLE10=When you 're smiling (The whole World smiles with you) 
TTITLE11=Kiss of Fire
TTITLE12=Sittin'  in the Sun
TTITLE13=A Kiss to build a Dream on
TTITLE14=High Society
TTITLE15=When it 's sleepy Time down South
TTITLE16=TakestTwo to Tango
TTITLE17=Skokiaan
TTITLE18=Hello Brother
TTITLE19=La Cucaracha
EXTD=
EXTT0=
EXTT1=
EXTT2=
EXTT3=
EXTT4=
EXTT5=
EXTT6=
EXTT7=
EXTT8=
EXTT9=
EXTT10=
EXTT11=
EXTT12=
EXTT13=
EXTT14=
EXTT15=
EXTT16=
EXTT17=
EXTT18=
EXTT19=
PLAYORDER=
